<svg xmlns="http://www.w3.org/2000/svg" viewBox="0 0 980 220" width="980" height="220" role="img" aria-labelledby="title desc">
  <title id="title">Forge &amp; Art horizontal logo</title>
  <desc id="desc">Premium horizontal logo for Forge and Art with a forge anvil monogram and wordmark.</desc>
  <rect width="980" height="220" fill="#000000"/>

  <!-- Icon group -->
  <g transform="translate(38 18) scale(0.36)">
    <path fill="#F3F4F6" d="M238 56h126l-12 20h-86l-24 40h92l-10 18h-94L155 294h-33L238 56z"/>
    <path fill="#C89A47" d="M150 310c29 0 58-4 86-9 14-2 28-3 42-3 13 0 27 1 41 3 29 5 58 9 86 9-23 9-49 14-76 17-17 2-34 3-51 3s-35-1-52-3c-27-3-52-8-76-17z"/>
    <path fill="#C89A47" d="M257 150c11 19 17 38 17 61 0 18-6 35-17 48-12-13-18-30-18-48 0-23 7-42 18-61z"/>
    <path fill="#C89A47" d="M222 222c10 7 18 19 21 34-12 2-24 1-35-4-4-14 1-27 14-30z"/>
    <path fill="#C89A47" d="M292 220c13 3 19 16 15 31-11 5-23 6-35 4 3-15 10-27 20-35z"/>
    <path fill="#F3F4F6" d="M49 314h174l-26 22c-11 10-20 23-27 39l-17 40H96l6-26c4-18-7-35-25-41l-28-10v-14z"/>
    <path fill="#F3F4F6" d="M463 314H289l26 22c11 10 20 23 27 39l17 40h57l-6-26c-4-18 7-35 25-41l28-10v-14z"/>
    <path fill="#000000" d="M240 314h34l-17 112h-24l7-63 0-49z"/>
  </g>

  <!-- Wordmark -->
  <text x="245" y="124" fill="#F3F4F6" font-family="Georgia, 'Times New Roman', serif" font-size="72" font-weight="700" letter-spacing="10">FORGE</text>
  <text x="590" y="124" fill="#C89A47" font-family="Georgia, 'Times New Roman', serif" font-size="74" font-weight="700" letter-spacing="4">&amp;</text>
  <text x="700" y="124" fill="#F3F4F6" font-family="Georgia, 'Times New Roman', serif" font-size="72" font-weight="700" letter-spacing="10">ART</text>

  <!-- Small descriptor line -->
  <text x="248" y="158" fill="#9CA3AF" font-family="Arial, Helvetica, sans-serif" font-size="15" font-weight="700" letter-spacing="5">WOOD · METAL · CUSTOM FABRICATION</text>
</svg>
