<svg xmlns="http://www.w3.org/2000/svg" viewBox="0 0 512 512" width="512" height="512" role="img" aria-labelledby="title desc">
  <title id="title">Forge &amp; Art logo</title>
  <desc id="desc">Monogram logo with a stylized F above an anvil-like A and a gold forge flame in the center.</desc>
  <rect width="512" height="512" fill="#000000"/>

  <!-- Top F -->
  <path fill="#F3F4F6" d="M238 56h126l-12 20h-86l-24 40h92l-10 18h-94L155 294h-33L238 56z"/>

  <!-- Gold forge line -->
  <path fill="#C89A47" d="M150 310c29 0 58-4 86-9 14-2 28-3 42-3 13 0 27 1 41 3 29 5 58 9 86 9-23 9-49 14-76 17-17 2-34 3-51 3s-35-1-52-3c-27-3-52-8-76-17z"/>

  <!-- Flame -->
  <path fill="#C89A47" d="M257 150c11 19 17 38 17 61 0 18-6 35-17 48-12-13-18-30-18-48 0-23 7-42 18-61z"/>
  <path fill="#C89A47" d="M222 222c10 7 18 19 21 34-12 2-24 1-35-4-4-14 1-27 14-30z"/>
  <path fill="#C89A47" d="M292 220c13 3 19 16 15 31-11 5-23 6-35 4 3-15 10-27 20-35z"/>

  <!-- Bottom A / anvil left -->
  <path fill="#F3F4F6" d="M49 314h174l-26 22c-11 10-20 23-27 39l-17 40H96l6-26c4-18-7-35-25-41l-28-10v-14z"/>

  <!-- Bottom A / anvil right -->
  <path fill="#F3F4F6" d="M463 314H289l26 22c11 10 20 23 27 39l17 40h57l-6-26c-4-18 7-35 25-41l28-10v-14z"/>

  <!-- Center notch to separate the A legs -->
  <path fill="#000000" d="M240 314h34l-17 112h-24l7-63 0-49z"/>
</svg>
